<?xml version="1.0" standalone="no"?>
<!DOCTYPE svg PUBLIC "-//W3C//DTD SVG 20010904//EN"
 "http://www.w3.org/TR/2001/REC-SVG-20010904/DTD/svg10.dtd">
<svg version="1.0" xmlns="http://www.w3.org/2000/svg"
 width="192.000000pt" height="253.000000pt" viewBox="0 0 192.000000 253.000000"
 preserveAspectRatio="xMidYMid meet">

<g transform="translate(0.000000,253.000000) scale(0.100000,-0.100000)"
fill="#000000" stroke="none">
<path d="M0 2002 c0 -329 4 -521 10 -512 5 8 13 11 17 6 4 -4 0 -13 -10 -20
-15 -12 -17 -38 -17 -294 l0 -281 38 -4 37 -4 -37 -1 -38 -2 0 -91 0 -91 33 6
32 6 -33 -15 -32 -15 0 -79 c0 -54 4 -81 13 -84 10 -4 10 -6 0 -6 -7 -1 -13
-5 -13 -10 0 -12 56 -4 94 14 21 10 66 17 126 18 87 2 90 3 54 14 -49 15 -95
16 -128 3 -45 -17 -28 0 20 20 25 11 42 24 39 30 -4 6 13 10 44 10 30 0 51 -5
54 -12 4 -10 8 -10 15 1 9 12 13 12 26 2 11 -9 24 -10 52 -2 45 12 53 8 35
-20 -7 -12 -10 -23 -7 -26 3 -3 1 -14 -4 -24 -7 -12 -6 -20 1 -24 7 -5 4 -14
-7 -26 -9 -10 -12 -19 -7 -19 6 0 13 -6 16 -14 4 -11 -2 -14 -26 -11 -40 3
-100 29 -90 38 3 4 -10 7 -31 7 -27 0 -35 -3 -30 -12 5 -10 4 -10 -6 -1 -10 9
-18 9 -34 -2 -12 -8 -41 -17 -64 -20 -24 -3 -56 -7 -70 -10 l-27 -5 27 12 c27
12 38 28 18 28 -14 0 -63 -23 -77 -37 -10 -8 -13 -68 -13 -227 l0 -216 720 0
721 1 9 24 c10 25 34 32 59 16 8 -5 11 -16 8 -25 -4 -10 -1 -16 9 -16 9 0 18
9 21 20 4 15 14 20 37 20 l31 -1 -24 -19 -23 -20 109 0 c103 0 109 1 118 23
10 22 52 34 81 23 12 -4 12 -10 4 -26 -9 -18 -8 -20 15 -20 23 0 25 3 25 49 0
46 -1 49 -22 43 -13 -3 -25 -9 -28 -13 -8 -12 -80 12 -78 25 0 6 -2 19 -6 29
-14 31 1 47 43 47 22 0 51 -4 65 -10 l26 -10 0 98 0 97 -96 -1 c-92 -1 -95 -1
-92 20 3 19 9 21 68 21 36 0 77 -3 92 -8 l28 -7 0 132 -1 133 -72 -77 c-63
-67 -75 -76 -99 -71 -32 6 -34 11 -15 38 11 13 22 17 44 12 26 -5 36 1 86 51
l57 58 0 275 0 275 -30 17 c-32 19 -40 37 -16 37 7 0 21 -10 29 -22 14 -21 16
38 16 634 l1 658 -960 0 -960 0 0 -528z m1127 441 c-3 -10 -5 -4 -5 12 0 17 2
24 5 18 2 -7 2 -21 0 -30z m-208 -162 c9 -6 10 -11 3 -15 -6 -4 -9 -13 -5 -21
8 -23 -14 -18 -31 7 -23 32 -2 51 33 29z m-199 -61 c-20 -13 -33 -13 -25 0 3
6 14 10 23 10 15 0 15 -2 2 -10z m-148 -57 c24 -22 23 -33 -5 -33 -13 0 -28
-5 -34 -11 -8 -8 -17 -8 -31 0 -16 8 -25 6 -47 -11 l-27 -21 7 24 c14 46 39
63 99 68 11 0 28 -6 38 -16z m-89 -223 c0 -19 -4 -44 -9 -54 -7 -19 -8 -19
-15 0 -7 18 -8 18 -8 -2 -1 -12 -8 -27 -16 -34 -8 -7 -15 -19 -15 -26 0 -16
-36 -19 -45 -4 -3 6 -2 10 3 10 9 0 13 9 46 101 13 36 21 46 38 45 18 -1 21
-7 21 -36z m29 -9 c-2 -17 -7 -29 -11 -26 -4 2 -6 18 -3 34 2 17 7 29 11 26 4
-2 6 -18 3 -34z m325 3 c-3 -3 -12 -4 -19 -1 -8 3 -5 6 6 6 11 1 17 -2 13 -5z
m-64 -11 c-7 -2 -19 -2 -25 0 -7 3 -2 5 12 5 14 0 19 -2 13 -5z m87 -33 c0 -5
-5 -10 -11 -10 -5 0 -7 5 -4 10 3 6 8 10 11 10 2 0 4 -4 4 -10z m917 -22 c-3
-8 -6 -5 -6 6 -1 11 2 17 5 13 3 -3 4 -12 1 -19z m-1216 -8 c28 -15 23 -27
-13 -33 -18 -3 -40 -8 -48 -11 -8 -3 -22 -2 -30 3 -12 8 -12 13 4 30 21 23 56
27 87 11z m1106 -6 c-3 -3 -12 -4 -19 -1 -8 3 -5 6 6 6 11 1 17 -2 13 -5z
m-997 -38 c0 -3 -8 -3 -17 -1 -10 2 -22 4 -26 4 -5 1 -5 6 -2 11 6 9 45 -4 45
-14z m-140 -37 c0 -5 -4 -9 -9 -9 -5 0 -17 -3 -26 -7 -15 -5 -16 -3 -6 15 11
20 41 21 41 1z m-126 2 c3 -5 -1 -11 -9 -15 -9 -3 -15 0 -15 9 0 16 16 20 24
6z m315 -119 c-17 -12 -23 -12 -29 -1 -12 18 20 41 38 27 10 -9 8 -14 -9 -26z
m-314 -2 c-27 -12 -43 -12 -25 0 8 5 22 9 30 9 10 0 8 -3 -5 -9z m150 -80 c-3
-5 -12 -10 -18 -10 -7 0 -6 4 3 10 19 12 23 12 15 0z m-45 -34 c0 -2 -7 -7
-16 -10 -8 -3 -12 -2 -9 4 6 10 25 14 25 6z m-63 -42 c-3 -3 -12 -4 -19 -1 -8
3 -5 6 6 6 11 1 17 -2 13 -5z m318 -4 c4 -6 -6 -10 -22 -11 -15 0 -44 -7 -63
-15 l-35 -14 45 5 45 5 -39 -14 c-22 -8 -43 -13 -48 -10 -12 8 -5 52 7 48 6
-3 22 0 36 5 32 13 66 13 74 1z m-668 -20 c-14 -11 -30 -20 -36 -20 -20 0 -12
20 12 30 39 15 51 11 24 -10z m1747 -12 c3 -13 17 -35 31 -50 14 -15 22 -33
19 -42 -5 -12 -16 -5 -49 29 -23 25 -50 45 -59 45 -9 0 -16 2 -16 4 0 2 -3 11
-6 20 -5 13 1 16 34 16 33 0 41 -4 46 -22z m-1524 -51 c-119 -53 -154 -67
-158 -62 -3 2 6 9 19 14 13 5 49 21 79 35 30 13 62 25 70 25 8 0 4 -5 -10 -12z
m350 3 c0 -5 -4 -10 -10 -10 -5 0 -10 5 -10 10 0 6 5 10 10 10 6 0 10 -4 10
-10z m1090 -5 c0 -8 3 -15 8 -15 23 -1 65 -51 67 -79 2 -38 -10 -39 -54 -3
l-33 28 -29 -25 c-16 -14 -29 -35 -29 -46 0 -13 -19 -32 -59 -58 -89 -57 -133
-76 -198 -83 -52 -7 -57 -6 -45 8 10 13 9 22 -8 51 l-21 36 45 26 c25 14 60
27 78 27 18 1 47 11 63 23 42 31 62 36 69 19 4 -10 16 -14 33 -12 19 2 27 9
30 28 5 37 23 67 47 78 30 15 36 14 36 -3z m-1023 -1 c-3 -3 -12 -4 -19 -1 -8
3 -5 6 6 6 11 1 17 -2 13 -5z m-187 -59 c17 -21 4 -67 -18 -63 -18 3 -28 39
-18 64 7 18 20 18 36 -1z m158 -3 c2 -7 -7 -12 -22 -12 -27 0 -35 15 -13 23
17 7 30 3 35 -11z m372 -3 c7 -11 18 -18 25 -15 18 7 38 -19 42 -56 3 -27 1
-30 -19 -24 -13 3 -30 6 -38 6 -12 0 -15 8 -12 35 4 37 3 39 -22 29 -19 -7
-21 -40 -3 -47 6 -3 -5 -6 -25 -6 -20 -1 -40 4 -44 10 -4 8 -9 8 -17 0 -15
-15 -27 -14 -27 4 0 17 93 81 122 84 4 1 12 -8 18 -20z m-170 -89 c0 -9 -15
-14 -72 -23 -29 -4 -40 16 -15 26 22 10 87 7 87 -3z m90 -21 c19 -12 38 -26
42 -32 9 -14 -1 -37 -17 -37 -7 0 -23 -19 -35 -42 -49 -98 -49 -98 -83 -98
-47 0 -17 -16 59 -30 70 -13 112 -43 94 -65 -8 -10 -18 -11 -35 -5 -61 23
-126 63 -164 99 -24 23 -46 41 -51 41 -4 0 -12 6 -19 13 -12 15 3 37 25 37 28
0 84 48 109 93 14 26 29 47 33 47 4 0 23 -10 42 -21z m-445 -10 c13 -6 4 -7
-25 -3 -25 3 -49 11 -55 16 -11 11 46 2 80 -13z m-259 -14 c-11 -8 -25 -15
-30 -15 -6 1 0 7 14 15 32 19 40 18 16 0z m107 8 c-7 -2 -21 -2 -30 0 -10 3
-4 5 12 5 17 0 24 -2 18 -5z m394 -10 c2 -6 -3 -13 -12 -16 -10 -5 -15 0 -15
14 0 21 21 22 27 2z m356 -91 c15 -17 16 -21 2 -32 -11 -9 -12 -17 -4 -31 20
-38 0 -18 -25 25 -43 73 -26 97 27 38z m370 1 c-7 -2 -19 -2 -25 0 -7 3 -2 5
12 5 14 0 19 -2 13 -5z m-413 -64 c0 -12 -27 -11 -35 1 -11 17 5 32 21 19 8
-6 14 -15 14 -20z m-693 -15 c10 -22 10 -24 -8 -19 -13 4 -19 2 -19 -9 0 -16
-34 -31 -49 -21 -9 5 -24 -10 -27 -30 -1 -5 -5 -18 -9 -27 -6 -15 -2 -18 23
-18 17 0 34 5 37 10 3 6 13 10 21 10 8 0 14 -4 14 -10 0 -5 -7 -10 -15 -10 -8
0 -15 -4 -15 -10 0 -5 -19 -10 -42 -11 -24 0 -37 -3 -30 -6 9 -3 4 -10 -13
-19 -23 -12 -36 -12 -93 3 -37 9 -69 17 -71 19 -1 1 6 13 18 25 11 12 18 26
15 31 -3 4 -1 8 5 8 6 0 20 11 33 24 13 13 40 26 60 29 20 3 46 15 58 27 16
16 31 21 51 18 16 -3 29 -1 29 4 0 17 15 7 27 -18z m108 -44 c3 -5 1 -10 -4
-10 -6 0 -11 5 -11 10 0 6 2 10 4 10 3 0 8 -4 11 -10z m-425 -20 c0 -5 -7 -10
-15 -10 -8 0 -15 5 -15 10 0 6 7 10 15 10 8 0 15 -4 15 -10z m1761 -59 c-18
-17 -30 -35 -27 -40 3 -5 -9 -14 -27 -21 -17 -7 -48 -21 -68 -31 -39 -20 -95
-26 -84 -9 3 6 15 10 26 10 10 0 37 18 58 39 21 21 48 42 60 46 12 3 21 10 21
15 0 9 61 30 69 24 1 -1 -11 -17 -28 -33z m-1291 -12 c0 -5 -7 -9 -15 -9 -8 0
-15 7 -15 15 0 9 6 12 15 9 8 -4 15 -10 15 -15z m1083 -5 c39 -7 51 -24 16
-24 -12 0 -23 -8 -26 -19 -6 -25 -64 -31 -158 -16 -57 9 -65 12 -45 19 24 7
39 13 90 34 29 12 70 14 123 6z m-503 -12 c0 -17 -25 -32 -52 -32 -34 0 -37
17 -5 30 28 11 57 12 57 2z m-981 -51 c19 -14 20 -19 8 -24 -16 -6 -57 18 -57
34 0 15 23 10 49 -10z m358 -27 c-3 -3 -12 -4 -19 -1 -8 3 -5 6 6 6 11 1 17
-2 13 -5z m592 -60 c3 -16 1 -17 -13 -5 -19 16 -21 34 -3 29 6 -3 14 -13 16
-24z m259 -8 c3 -15 1 -16 -17 -5 -11 7 -17 17 -14 22 8 13 28 2 31 -17z
m-1033 -43 c15 -18 33 -33 41 -33 17 0 18 -11 1 -34 -11 -15 -18 -16 -62 -5
-28 6 -57 17 -65 24 -26 21 -44 29 -36 17 4 -7 1 -12 -6 -12 -11 0 -10 -2 0
-9 10 -6 8 -10 -10 -14 -33 -9 -50 -8 -44 2 3 4 -7 6 -22 4 -19 -2 -14 2 18
16 28 13 38 20 25 21 -19 1 -19 1 -2 11 10 6 34 8 53 5 18 -4 37 -6 40 -6 4 1
10 -4 14 -10 5 -8 10 -9 14 -2 3 6 -8 15 -25 21 -30 10 -32 31 -3 31 8 0 14 5
14 10 0 16 24 0 55 -37z m1201 39 c15 -10 27 -78 19 -113 -6 -28 -10 -30 -37
-24 -17 4 -38 8 -47 10 -9 1 -16 11 -17 23 -1 11 4 18 10 16 7 -3 11 11 10 38
0 44 9 58 36 58 8 0 20 -4 26 -8z m-1316 -9 c-8 -3 -18 -10 -21 -16 -9 -13
-42 0 -34 13 3 5 21 10 38 9 18 0 25 -3 17 -6z m1104 -15 c-5 -28 16 -118 28
-118 5 0 -8 -14 -28 -32 l-36 -32 22 -18 c16 -13 18 -18 7 -18 -8 0 -22 -3
-31 -6 -13 -5 -16 3 -16 46 0 43 3 51 18 49 39 -4 54 4 17 10 l-40 6 3 45 c4
41 32 90 53 90 4 0 6 -10 3 -22z m-1169 -16 c-3 -3 -11 0 -18 7 -9 10 -8 11 6
5 10 -3 15 -9 12 -12z m385 -21 c0 -15 -18 -22 -25 -11 -4 7 -19 9 -35 5 -16
-3 -31 -2 -35 4 -4 7 11 11 44 11 28 0 51 -4 51 -9z m-93 -27 c-3 -3 -12 -4
-19 -1 -8 3 -5 6 6 6 11 1 17 -2 13 -5z m-402 -33 c-3 -6 -11 -11 -17 -11 -6
0 -6 6 2 15 14 17 26 13 15 -4z m849 -29 c13 -20 35 -60 49 -88 22 -44 33 -54
79 -72 40 -15 47 -21 28 -21 -14 -1 -36 6 -49 15 -38 27 -121 45 -175 38 l-49
-6 7 38 c4 22 10 49 13 60 4 18 -2 24 -34 35 l-38 12 35 13 c19 7 52 13 72 13
33 1 41 -4 62 -37z m-728 13 c-21 -16 -84 -31 -92 -22 -10 10 50 36 81 36 28
0 29 0 11 -14z m-126 -15 c-8 -5 -19 -10 -25 -10 -5 0 -3 5 5 10 8 5 20 10 25
10 6 0 3 -5 -5 -10z m1563 -7 c-7 -2 -19 -2 -25 0 -7 3 -2 5 12 5 14 0 19 -2
13 -5z m-171 -135 c-10 -22 -11 -21 -11 12 -1 26 2 31 11 22 8 -8 8 -17 0 -34z
m-1161 -22 c-11 -13 -51 -29 -51 -20 0 3 51 33 59 34 2 0 -2 -6 -8 -14z m1386
-102 c27 -21 32 -29 22 -40 -6 -8 -24 -14 -40 -14 -21 0 -34 9 -54 37 -14 21
-25 42 -25 47 0 16 62 -3 97 -30z m-612 6 c18 -19 17 -20 -3 -20 -15 0 -22 6
-22 20 0 11 2 20 3 20 2 0 12 -9 22 -20z m-555 -5 c0 -11 -12 -15 -47 -15 -44
1 -47 2 -29 15 26 20 76 20 76 0z m740 -105 c-20 -13 -33 -13 -25 0 3 6 14 10
23 10 15 0 15 -2 2 -10z m670 -21 c0 -15 -4 -19 -16 -15 -9 3 -20 6 -26 6 -6
0 -6 6 2 15 18 22 40 18 40 -6z m-364 -74 c70 -18 87 -31 51 -40 -14 -4 -31
-4 -36 0 -6 3 -11 1 -11 -5 0 -8 -10 -10 -27 -6 -21 5 -24 4 -13 -4 20 -13 4
-13 -59 1 -37 8 -48 14 -44 25 3 8 -1 14 -8 15 -21 1 43 28 68 29 12 0 48 -7
79 -15z m-296 -70 c24 -14 24 -14 -22 -15 -59 0 -64 19 -8 28 3 1 16 -5 30
-13z"/>
<path d="M1030 1339 c0 -5 5 -7 10 -4 6 3 10 8 10 11 0 2 -4 4 -10 4 -5 0 -10
-5 -10 -11z"/>
<path d="M1515 640 c3 -5 8 -10 11 -10 2 0 4 5 4 10 0 6 -5 10 -11 10 -5 0 -7
-4 -4 -10z"/>
<path d="M333 533 c9 -2 23 -2 30 0 6 3 -1 5 -18 5 -16 0 -22 -2 -12 -5z"/>
<path d="M233 523 c9 -2 23 -2 30 0 6 3 -1 5 -18 5 -16 0 -22 -2 -12 -5z"/>
<path d="M13 483 c-7 -2 -13 -8 -13 -13 0 -10 38 -1 46 11 6 10 -13 11 -33 2z"/>
<path d="M1825 100 c4 -6 11 -8 16 -5 14 9 11 15 -7 15 -8 0 -12 -5 -9 -10z"/>
</g>
</svg>
